<?xml version="1.0" encoding="UTF-8"?>
<svg xmlns="http://www.w3.org/2000/svg" xmlns:xlink="http://www.w3.org/1999/xlink" width="290.13pt" height="290.13pt" viewBox="0 0 290.13 290.13" version="1.1">
<defs>
<clipPath id="clip1">
  <path d="M 0 0 L 290.128906 0 L 290.128906 290.128906 L 0 290.128906 Z M 0 0 "/>
</clipPath>
</defs>
<g id="surface1">
<path style=" stroke:none;fill-rule:nonzero;fill:rgb(89.99939%,100%,89.99939%);fill-opacity:1;" d="M 286.800781 145.066406 C 286.800781 66.785156 223.34375 3.332031 145.066406 3.332031 C 66.785156 3.332031 3.332031 66.785156 3.332031 145.066406 C 3.332031 223.34375 66.785156 286.800781 145.066406 286.800781 C 223.34375 286.800781 286.800781 223.34375 286.800781 145.066406 Z M 286.800781 145.066406 "/>
<g clip-path="url(#clip1)" clip-rule="nonzero">
<path style="fill:none;stroke-width:0.99628;stroke-linecap:butt;stroke-linejoin:miter;stroke:rgb(0%,0%,0%);stroke-opacity:1;stroke-miterlimit:10;" d="M 141.735781 -0.00140625 C 141.735781 78.279844 78.27875 141.732969 0.00140625 141.732969 C -78.279844 141.732969 -141.732969 78.279844 -141.732969 -0.00140625 C -141.732969 -78.27875 -78.279844 -141.735781 0.00140625 -141.735781 C 78.27875 -141.735781 141.735781 -78.27875 141.735781 -0.00140625 Z M 141.735781 -0.00140625 " transform="matrix(1,0,0,-1,145.065,145.065)"/>
</g>
<path style="fill:none;stroke-width:0.3985;stroke-linecap:butt;stroke-linejoin:miter;stroke:rgb(50%,50%,50%);stroke-opacity:1;stroke-miterlimit:10;" d="M 0.00140625 -0.00140625 L 0.00140625 55.885312 " transform="matrix(1,0,0,-1,145.065,145.065)"/>
<path style="fill-rule:nonzero;fill:rgb(50%,50%,50%);fill-opacity:1;stroke-width:0.3985;stroke-linecap:butt;stroke-linejoin:miter;stroke:rgb(50%,50%,50%);stroke-opacity:1;stroke-miterlimit:10;" d="M -5.202483 2.334531 L 0.297517 -0.00140625 L -5.202483 -2.337344 Z M -5.202483 2.334531 " transform="matrix(0,-1,-1,0,145.065,89.18033)"/>
<path style="fill:none;stroke-width:0.99628;stroke-linecap:butt;stroke-linejoin:miter;stroke:rgb(0%,0%,50%);stroke-opacity:1;stroke-miterlimit:10;" d="M -56.693906 56.693906 L -66.2525 110.900937 " transform="matrix(1,0,0,-1,145.065,145.065)"/>
<path style="fill-rule:nonzero;fill:rgb(0%,0%,50%);fill-opacity:1;stroke-width:0.99628;stroke-linecap:butt;stroke-linejoin:miter;stroke:rgb(0%,0%,50%);stroke-opacity:1;stroke-miterlimit:10;" d="M -6.503728 2.920335 L 0.374673 -0.00197456 L -6.50576 -2.918056 Z M -6.503728 2.920335 " transform="matrix(-0.17363,-0.9848,-0.9848,0.17363,78.81311,34.16229)"/>
<path style="fill:none;stroke-width:0.99628;stroke-linecap:butt;stroke-linejoin:miter;stroke:rgb(0%,0%,50%);stroke-opacity:1;stroke-miterlimit:10;" d="M 56.692813 70.865781 L 66.251406 125.076719 " transform="matrix(1,0,0,-1,145.065,145.065)"/>
<path style="fill-rule:nonzero;fill:rgb(0%,0%,50%);fill-opacity:1;stroke-width:0.99628;stroke-linecap:butt;stroke-linejoin:miter;stroke:rgb(0%,0%,50%);stroke-opacity:1;stroke-miterlimit:10;" d="M -6.503604 2.919546 L 0.37366 -0.00106004 L -6.505419 -2.919523 Z M -6.503604 2.919546 " transform="matrix(0.17363,-0.9848,-0.9848,-0.17363,211.31689,19.98889)"/>
<path style="fill:none;stroke-width:0.99628;stroke-linecap:butt;stroke-linejoin:miter;stroke:rgb(0%,0%,50%);stroke-opacity:1;stroke-miterlimit:10;" d="M -56.693906 -85.040469 L -92.076719 -42.8725 " transform="matrix(1,0,0,-1,145.065,145.065)"/>
<path style="fill-rule:nonzero;fill:rgb(0%,0%,50%);fill-opacity:1;stroke-width:0.99628;stroke-linecap:butt;stroke-linejoin:miter;stroke:rgb(0%,0%,50%);stroke-opacity:1;stroke-miterlimit:10;" d="M -6.503459 2.918644 L 0.37329 -0.00117968 L -6.505818 -2.918201 Z M -6.503459 2.918644 " transform="matrix(-0.64278,-0.76602,-0.76602,0.64278,52.98904,187.93905)"/>
<path style="fill:none;stroke-width:0.99628;stroke-linecap:butt;stroke-linejoin:miter;stroke:rgb(0%,0%,50%);stroke-opacity:1;stroke-miterlimit:10;" d="M -85.041562 -0.00140625 L -112.561094 47.670469 " transform="matrix(1,0,0,-1,145.065,145.065)"/>
<path style="fill-rule:nonzero;fill:rgb(0%,0%,50%);fill-opacity:1;stroke-width:0.99628;stroke-linecap:butt;stroke-linejoin:miter;stroke:rgb(0%,0%,50%);stroke-opacity:1;stroke-miterlimit:10;" d="M -6.505603 2.919445 L 0.373813 -0.00132272 L -6.502472 -2.919116 Z M -6.505603 2.919445 " transform="matrix(-0.49998,-0.86601,-0.86601,0.49998,32.50216,97.3947)"/>
<path style="fill:none;stroke-width:0.99628;stroke-linecap:butt;stroke-linejoin:miter;stroke:rgb(0%,0%,50%);stroke-opacity:1;stroke-miterlimit:10;" d="M 56.692813 -70.868594 L 56.692813 -15.821719 " transform="matrix(1,0,0,-1,145.065,145.065)"/>
<path style="fill-rule:nonzero;fill:rgb(0%,0%,50%);fill-opacity:1;stroke-width:0.99628;stroke-linecap:butt;stroke-linejoin:miter;stroke:rgb(0%,0%,50%);stroke-opacity:1;stroke-miterlimit:10;" d="M -6.503405 2.918776 L 0.375501 0.0008075 L -6.503405 -2.921067 Z M -6.503405 2.918776 " transform="matrix(0,-1,-1,0,201.75862,160.88722)"/>
<path style="fill:none;stroke-width:0.99628;stroke-linecap:butt;stroke-linejoin:miter;stroke:rgb(0%,0%,50%);stroke-opacity:1;stroke-miterlimit:10;" d="M 0.00140625 -0.00140625 L -13.315 53.40875 " transform="matrix(1,0,0,-1,145.065,145.065)"/>
<path style="fill-rule:nonzero;fill:rgb(0%,0%,50%);fill-opacity:1;stroke-width:0.99628;stroke-linecap:butt;stroke-linejoin:miter;stroke:rgb(0%,0%,50%);stroke-opacity:1;stroke-miterlimit:10;" d="M -6.503993 2.920606 L 0.372449 -0.00135448 L -6.50291 -2.921185 Z M -6.503993 2.920606 " transform="matrix(-0.24188,-0.97029,-0.97029,0.24188,131.74893,91.65468)"/>
<path style="fill:none;stroke-width:1.99255;stroke-linecap:butt;stroke-linejoin:miter;stroke:rgb(100%,0%,0%);stroke-opacity:1;stroke-miterlimit:10;" d="M 0.00140625 -0.00140625 L -38.873594 -6.852969 " transform="matrix(1,0,0,-1,145.065,145.065)"/>
<path style="fill-rule:nonzero;fill:rgb(100%,0%,0%);fill-opacity:1;stroke-width:1.99255;stroke-linecap:butt;stroke-linejoin:miter;stroke:rgb(100%,0%,0%);stroke-opacity:1;stroke-miterlimit:10;" d="M -8.673335 3.892105 L 0.497037 -0.00151726 L -8.673705 -3.894151 Z M -8.673335 3.892105 " transform="matrix(-0.9848,0.17363,0.17363,0.9848,106.19287,151.9191)"/>
<path style="fill-rule:nonzero;fill:rgb(94.999695%,94.999695%,94.999695%);fill-opacity:1;stroke-width:0.79701;stroke-linecap:butt;stroke-linejoin:miter;stroke:rgb(0%,0%,0%);stroke-opacity:1;stroke-miterlimit:10;" d="M 0.00140625 28.34625 L -14.174375 -14.173281 L 14.173281 -14.173281 Z M 0.00140625 28.34625 " transform="matrix(1,0,0,-1,145.065,145.065)"/>
<path style="fill-rule:nonzero;fill:rgb(89.99939%,89.99939%,100%);fill-opacity:1;stroke-width:0.79701;stroke-linecap:butt;stroke-linejoin:miter;stroke:rgb(0%,0%,0%);stroke-opacity:1;stroke-miterlimit:10;" d="M -61.615781 84.611875 L -68.19 40.275937 L -40.275937 45.197812 Z M -61.615781 84.611875 " transform="matrix(1,0,0,-1,145.065,145.065)"/>
<path style="fill-rule:nonzero;fill:rgb(89.99939%,89.99939%,100%);fill-opacity:1;stroke-width:0.79701;stroke-linecap:butt;stroke-linejoin:miter;stroke:rgb(0%,0%,0%);stroke-opacity:1;stroke-miterlimit:10;" d="M 61.614688 98.78375 L 40.274844 59.369687 L 68.188906 54.447812 Z M 61.614688 98.78375 " transform="matrix(1,0,0,-1,145.065,145.065)"/>
<path style="fill-rule:nonzero;fill:rgb(89.99939%,89.99939%,100%);fill-opacity:1;stroke-width:0.79701;stroke-linecap:butt;stroke-linejoin:miter;stroke:rgb(0%,0%,0%);stroke-opacity:1;stroke-miterlimit:10;" d="M -74.916562 -63.325625 L -58.44 -105.009219 L -36.725156 -86.786563 Z M -74.916562 -63.325625 " transform="matrix(1,0,0,-1,145.065,145.065)"/>
<path style="fill-rule:nonzero;fill:rgb(89.99939%,89.99939%,100%);fill-opacity:1;stroke-width:0.79701;stroke-linecap:butt;stroke-linejoin:miter;stroke:rgb(0%,0%,0%);stroke-opacity:1;stroke-miterlimit:10;" d="M -99.213437 24.549375 L -90.229062 -19.360781 L -65.678281 -5.188906 Z M -99.213437 24.549375 " transform="matrix(1,0,0,-1,145.065,145.065)"/>
<path style="fill-rule:nonzero;fill:rgb(89.99939%,89.99939%,100%);fill-opacity:1;stroke-width:0.79701;stroke-linecap:butt;stroke-linejoin:miter;stroke:rgb(0%,0%,0%);stroke-opacity:1;stroke-miterlimit:10;" d="M 56.692813 -42.520938 L 42.520938 -85.040469 L 70.868594 -85.040469 Z M 56.692813 -42.520938 " transform="matrix(1,0,0,-1,145.065,145.065)"/>
<path style="fill-rule:nonzero;fill:rgb(0%,75%,0%);fill-opacity:1;stroke-width:0.79701;stroke-linecap:butt;stroke-linejoin:miter;stroke:rgb(0%,0%,0%);stroke-opacity:1;stroke-miterlimit:10;" d="M -6.857969 27.506406 L -10.322812 -17.181094 L 17.181094 -10.325625 Z M -6.857969 27.506406 " transform="matrix(1,0,0,-1,145.065,145.065)"/>
</g>
</svg>
