<?xml version="1.0" encoding="UTF-8"?>
<svg xmlns="http://www.w3.org/2000/svg" xmlns:xlink="http://www.w3.org/1999/xlink" width="334.895pt" height="290.13pt" viewBox="0 0 334.895 290.13" version="1.1">
<defs>
<clipPath id="clip1">
  <path d="M 34 0 L 334.894531 0 L 334.894531 290.128906 L 34 290.128906 Z M 34 0 "/>
</clipPath>
</defs>
<g id="surface1">
<path style=" stroke:none;fill-rule:nonzero;fill:rgb(89.99939%,100%,89.99939%);fill-opacity:1;" d="M 331.5625 145.066406 C 331.5625 66.785156 268.109375 3.332031 189.828125 3.332031 C 111.550781 3.332031 48.097656 66.785156 48.097656 145.066406 C 48.097656 223.34375 111.550781 286.800781 189.828125 286.800781 C 268.109375 286.800781 331.5625 223.34375 331.5625 145.066406 Z M 331.5625 145.066406 "/>
<g clip-path="url(#clip1)" clip-rule="nonzero">
<path style="fill:none;stroke-width:0.99628;stroke-linecap:butt;stroke-linejoin:miter;stroke:rgb(0%,0%,0%);stroke-opacity:1;stroke-miterlimit:10;" d="M 141.7325 -0.00140625 C 141.7325 78.279844 78.279375 141.732969 -0.001875 141.732969 C -78.279219 141.732969 -141.732344 78.279844 -141.732344 -0.00140625 C -141.732344 -78.27875 -78.279219 -141.735781 -0.001875 -141.735781 C 78.279375 -141.735781 141.7325 -78.27875 141.7325 -0.00140625 Z M 141.7325 -0.00140625 " transform="matrix(1,0,0,-1,189.83,145.065)"/>
</g>
<path style=" stroke:none;fill-rule:nonzero;fill:rgb(0%,0%,0%);fill-opacity:1;" d="M 122.488281 154.417969 C 122.488281 152.863281 121.226562 151.601562 119.671875 151.601562 C 118.113281 151.601562 116.851562 152.863281 116.851562 154.417969 C 116.851562 155.976562 118.113281 157.238281 119.671875 157.238281 C 121.226562 157.238281 122.488281 155.976562 122.488281 154.417969 Z M 122.488281 154.417969 "/>
<path style="fill:none;stroke-width:0.99628;stroke-linecap:butt;stroke-linejoin:miter;stroke:rgb(0%,0%,0%);stroke-opacity:1;stroke-miterlimit:10;" d="M -56.693281 56.693906 L -69.537031 -6.302188 M -42.521406 -85.040469 L -69.087813 -12.282656 M -113.388594 -0.00140625 L -73.205 -8.696719 " transform="matrix(1,0,0,-1,189.83,145.065)"/>
<path style="fill:none;stroke-width:1.99255;stroke-linecap:butt;stroke-linejoin:miter;stroke:rgb(100%,0%,0%);stroke-opacity:1;stroke-miterlimit:10;" d="M -0.001875 -0.00140625 L -64.04875 -8.540469 " transform="matrix(1,0,0,-1,189.83,145.065)"/>
<path style="fill-rule:nonzero;fill:rgb(100%,0%,0%);fill-opacity:1;stroke-width:1.99255;stroke-linecap:butt;stroke-linejoin:miter;stroke:rgb(100%,0%,0%);stroke-opacity:1;stroke-miterlimit:10;" d="M -8.674259 3.892152 L 0.497969 0.00128466 L -8.671544 -3.891704 Z M -8.674259 3.892152 " transform="matrix(-0.99118,0.13214,0.13214,0.99118,125.78247,153.6048)"/>
<path style="fill-rule:nonzero;fill:rgb(0%,75%,0%);fill-opacity:1;stroke-width:0.99628;stroke-linecap:butt;stroke-linejoin:miter;stroke:rgb(0%,0%,0%);stroke-opacity:1;stroke-miterlimit:10;" d="M -0.001875 28.34625 L -14.17375 -14.173281 L 14.173906 -14.173281 Z M -0.001875 28.34625 " transform="matrix(1,0,0,-1,189.83,145.065)"/>
<path style="fill-rule:nonzero;fill:rgb(89.99939%,89.99939%,100%);fill-opacity:1;stroke-width:0.99628;stroke-linecap:butt;stroke-linejoin:miter;stroke:rgb(0%,0%,0%);stroke-opacity:1;stroke-miterlimit:10;" d="M -61.615156 84.611875 L -68.189375 40.275937 L -40.275313 45.197812 Z M -61.615156 84.611875 " transform="matrix(1,0,0,-1,189.83,145.065)"/>
<path style="fill-rule:nonzero;fill:rgb(94.999695%,94.999695%,94.999695%);fill-opacity:1;stroke-width:0.99628;stroke-linecap:butt;stroke-linejoin:miter;stroke:rgb(0%,0%,0%);stroke-opacity:1;stroke-miterlimit:10;" d="M -165.158125 98.78375 L -186.501875 59.369687 L -158.583906 54.447812 Z M -165.158125 98.78375 " transform="matrix(1,0,0,-1,189.83,145.065)"/>
<path style="fill-rule:nonzero;fill:rgb(89.99939%,89.99939%,100%);fill-opacity:1;stroke-width:0.99628;stroke-linecap:butt;stroke-linejoin:miter;stroke:rgb(0%,0%,0%);stroke-opacity:1;stroke-miterlimit:10;" d="M -37.599531 -57.1225 L -58.939375 -96.536563 L -31.025313 -101.458438 Z M -37.599531 -57.1225 " transform="matrix(1,0,0,-1,189.83,145.065)"/>
<path style="fill-rule:nonzero;fill:rgb(89.99939%,89.99939%,100%);fill-opacity:1;stroke-width:0.99628;stroke-linecap:butt;stroke-linejoin:miter;stroke:rgb(0%,0%,0%);stroke-opacity:1;stroke-miterlimit:10;" d="M -108.466719 27.916562 L -129.806563 -11.4975 L -101.888594 -16.419375 Z M -108.466719 27.916562 " transform="matrix(1,0,0,-1,189.83,145.065)"/>
<path style="fill-rule:nonzero;fill:rgb(94.999695%,94.999695%,94.999695%);fill-opacity:1;stroke-width:0.99628;stroke-linecap:butt;stroke-linejoin:miter;stroke:rgb(0%,0%,0%);stroke-opacity:1;stroke-miterlimit:10;" d="M -165.158125 -42.950625 L -186.501875 -82.364688 L -158.583906 -87.286563 Z M -165.158125 -42.950625 " transform="matrix(1,0,0,-1,189.83,145.065)"/>
</g>
</svg>
