<?xml version="1.0" encoding="UTF-8"?>
<svg xmlns="http://www.w3.org/2000/svg" xmlns:xlink="http://www.w3.org/1999/xlink" width="460.209pt" height="460.209pt" viewBox="0 0 460.209 460.209" version="1.1">
<g id="surface1">
<path style=" stroke:none;fill-rule:nonzero;fill:rgb(89.99939%,100%,89.99939%);fill-opacity:1;" d="M 456.878906 230.105469 C 456.878906 104.859375 355.351562 3.332031 230.105469 3.332031 C 104.859375 3.332031 3.328125 104.859375 3.328125 230.105469 C 3.328125 355.351562 104.859375 456.878906 230.105469 456.878906 C 355.351562 456.878906 456.878906 355.351562 456.878906 230.105469 Z M 456.878906 230.105469 "/>
<path style="fill:none;stroke-width:0.99628;stroke-linecap:butt;stroke-linejoin:miter;stroke:rgb(0%,0%,0%);stroke-opacity:1;stroke-miterlimit:10;" d="M 226.774906 -0.00046875 C 226.774906 125.245625 125.247563 226.772969 0.00146875 226.772969 C -125.244625 226.772969 -226.775875 125.245625 -226.775875 -0.00046875 C -226.775875 -125.246562 -125.244625 -226.773906 0.00146875 -226.773906 C 125.247563 -226.773906 226.774906 -125.246562 226.774906 -0.00046875 Z M 226.774906 -0.00046875 " transform="matrix(1,0,0,-1,230.104,230.105)"/>
<path style="fill-rule:nonzero;fill:rgb(100%,89.99939%,89.99939%);fill-opacity:1;stroke-width:0.99628;stroke-linecap:butt;stroke-linejoin:miter;stroke:rgb(100%,0%,0%);stroke-opacity:1;stroke-miterlimit:10;" d="M 85.040531 -0.00046875 C 85.040531 46.968281 46.966313 85.038594 0.00146875 85.038594 C -46.967281 85.038594 -85.0415 46.968281 -85.0415 -0.00046875 C -85.0415 -46.965312 -46.967281 -85.039531 0.00146875 -85.039531 C 46.966313 -85.039531 85.040531 -46.965312 85.040531 -0.00046875 Z M 85.040531 -0.00046875 " transform="matrix(1,0,0,-1,230.104,230.105)"/>
<path style="fill:none;stroke-width:0.3985;stroke-linecap:butt;stroke-linejoin:miter;stroke:rgb(0%,0%,0%);stroke-opacity:1;stroke-miterlimit:10;" d="M 0.00146875 -0.00046875 L -28.346187 28.347188 M 0.00146875 -0.00046875 L 42.521 42.519063 M 0.00146875 -0.00046875 L -42.521969 -28.348125 " transform="matrix(1,0,0,-1,230.104,230.105)"/>
<path style="fill:none;stroke-width:1.99255;stroke-linecap:butt;stroke-linejoin:miter;stroke:rgb(100%,0%,0%);stroke-opacity:1;stroke-miterlimit:10;" d="M 0.00146875 -0.00046875 L 46.4585 -26.820781 " transform="matrix(1,0,0,-1,230.104,230.105)"/>
<path style="fill-rule:nonzero;fill:rgb(100%,0%,0%);fill-opacity:1;stroke-width:1.99255;stroke-linecap:butt;stroke-linejoin:miter;stroke:rgb(100%,0%,0%);stroke-opacity:1;stroke-miterlimit:10;" d="M -8.674863 3.893179 L 0.496599 0.0000557459 L -8.673224 -3.891221 Z M -8.674863 3.893179 " transform="matrix(0.86601,0.49998,0.49998,-0.86601,276.5621,256.92754)"/>
<path style="fill-rule:nonzero;fill:rgb(0%,75%,0%);fill-opacity:1;stroke-width:0.99628;stroke-linecap:butt;stroke-linejoin:miter;stroke:rgb(0%,0%,0%);stroke-opacity:1;stroke-miterlimit:10;" d="M 0.00146875 14.175313 L -7.088375 -7.086406 L 7.087406 -7.086406 Z M 0.00146875 14.175313 " transform="matrix(1,0,0,-1,230.104,230.105)"/>
<path style="fill-rule:nonzero;fill:rgb(100%,59.999084%,59.999084%);fill-opacity:1;stroke-width:0.99628;stroke-linecap:butt;stroke-linejoin:miter;stroke:rgb(0%,0%,0%);stroke-opacity:1;stroke-miterlimit:10;" d="M -30.807125 42.304219 L -34.096187 20.13625 L -20.139156 22.597188 Z M -30.807125 42.304219 " transform="matrix(1,0,0,-1,230.104,230.105)"/>
<path style="fill-rule:nonzero;fill:rgb(100%,59.999084%,59.999084%);fill-opacity:1;stroke-width:0.99628;stroke-linecap:butt;stroke-linejoin:miter;stroke:rgb(0%,0%,0%);stroke-opacity:1;stroke-miterlimit:10;" d="M 44.981938 56.48 L 34.310063 36.772969 L 48.267094 34.312031 Z M 44.981938 56.48 " transform="matrix(1,0,0,-1,230.104,230.105)"/>
<path style="fill-rule:nonzero;fill:rgb(100%,59.999084%,59.999084%);fill-opacity:1;stroke-width:0.99628;stroke-linecap:butt;stroke-linejoin:miter;stroke:rgb(0%,0%,0%);stroke-opacity:1;stroke-miterlimit:10;" d="M -44.982906 -14.387187 L -48.268062 -36.555156 L -34.311031 -34.094219 Z M -44.982906 -14.387187 " transform="matrix(1,0,0,-1,230.104,230.105)"/>
<path style="fill-rule:nonzero;fill:rgb(89.99939%,89.99939%,100%);fill-opacity:1;stroke-width:0.99628;stroke-linecap:butt;stroke-linejoin:miter;stroke:rgb(0%,0%,0%);stroke-opacity:1;stroke-miterlimit:10;" d="M -87.502437 127.343281 L -90.787594 105.179219 L -76.830562 107.640156 Z M -87.502437 127.343281 " transform="matrix(1,0,0,-1,230.104,230.105)"/>
<path style="fill-rule:nonzero;fill:rgb(89.99939%,89.99939%,100%);fill-opacity:1;stroke-width:0.99628;stroke-linecap:butt;stroke-linejoin:miter;stroke:rgb(0%,0%,0%);stroke-opacity:1;stroke-miterlimit:10;" d="M -142.971187 14.120625 L -148.174312 -7.67625 L -134.057125 -6.441875 Z M -142.971187 14.120625 " transform="matrix(1,0,0,-1,230.104,230.105)"/>
<path style="fill-rule:nonzero;fill:rgb(89.99939%,89.99939%,100%);fill-opacity:1;stroke-width:0.99628;stroke-linecap:butt;stroke-linejoin:miter;stroke:rgb(0%,0%,0%);stroke-opacity:1;stroke-miterlimit:10;" d="M -87.502437 -127.777812 L -90.787594 -149.941875 L -76.830562 -147.480937 Z M -87.502437 -127.777812 " transform="matrix(1,0,0,-1,230.104,230.105)"/>
</g>
</svg>
